<?xml version="1.0" encoding="utf-8"?>
<!-- Generator: Adobe Illustrator 23.1.0, SVG Export Plug-In . SVG Version: 6.00 Build 0)  -->
<svg version="1.1" id="Layer_1" xmlns="http://www.w3.org/2000/svg" xmlns:xlink="http://www.w3.org/1999/xlink" x="0px" y="0px"
	 viewBox="0 0 300 300" style="enable-background:new 0 0 300 300;" xml:space="preserve">
<style type="text/css">
	.st0{fill:#3EB049;}
	.st1{fill:#81C341;}
	.st2{fill:#2F6E51;}
	.st3{fill:#2D7A3C;}
</style>
<path class="st0" d="M124.86,176.93c-4.01,8.35-12.03,12.99-18.4,19.08c-12.06,11.54-24.85,22.33-37.1,33.68
	c-16.75,15.52-19.22,31.7-8.33,51.63c0.32,0.58,0.23,1.38,0.33,2.08c20.19,22.72,55.35,15.72,65.58-13.17
	c7.43-20.99,14.54-42.08,21.79-63.12c2.08-5.23,0.48-9.24-3.5-13.13c-4.53-4.43-8.64-9.3-13.22-13.7
	C130.08,178.42,128.32,175.78,124.86,176.93"/>
<path class="st1" d="M159.21,98.51c3.68-18.03,7.71-36,10.9-54.12c1.79-10.17,3.84-20,9.22-29.04c4.97-8.34,13.58-11.03,21.52-14.89
	c16.86-2.28,29.77,4.14,41.12,16.45c14.52,15.74,30.14,30.48,45.28,45.64c-2.32,2-4.29,0.38-6.31-0.61
	c-14.89-7.25-30.86-4.72-42.75,6.67c-16.45,15.77-31.01,33.31-47.3,49.23c-2.63,2.57-4.89,5.63-9.16,5.42
	c-6.27-2.31-10.04-7.7-14.74-11.94c-2.2-1.99-4.26-4.13-6.64-5.93C157.86,103.49,156.68,101.27,159.21,98.51"/>
<path class="st1" d="M205.94,148.24c21.72,21.77,43.44,43.55,66,66.16c-13.32,3.3-25.48,6.64-37.81,9.21
	c-4.85,1.01-6.92,3.14-7.98,7.77c-2.56,11.16-5.79,22.16-8.38,33.31c-1.12,4.8-2.62,4.51-5.53,1.43
	c-3.32-3.51-6.83-6.84-10.26-10.25c-2.45-0.87-4.37-2.47-6.2-4.27c-14.74-14.56-29.31-29.31-44.19-43.74
	c-1.34-1.3-2.54-2.66-3.04-4.51c-0.03-3.09,2.12-4.96,4.04-6.88c15.06-15.05,30.14-30.1,45.38-44.98
	C200.02,149.48,201.91,145.94,205.94,148.24"/>
<path class="st0" d="M181.51,121.94c8.27-3.73,12.98-11.38,19.08-17.42c11.56-11.43,22.39-23.59,33.76-35.21
	c15.55-15.89,31.49-17.99,50.88-7.12c0.56,0.32,1.35,0.25,2.03,0.36c21.96,19.89,14.44,53.71-14.13,63.06
	c-20.75,6.79-41.6,13.29-62.41,19.91c-5.17,1.91-9.08,0.3-12.83-3.61c-4.27-4.45-8.98-8.5-13.22-13
	C182.87,127.01,180.31,125.26,181.51,121.94"/>
<path class="st2" d="M181.51,121.94c6.31,8.08,14.5,14.36,21.42,21.85c2.12,2.3,5.13,1.4,7.79,1.73c-1.59,0.91-3.18,1.81-4.77,2.71
	c-1.8-0.06-2.98,1.04-4.13,2.19c-16.8,16.7-33.61,33.41-50.39,50.13c-0.8,0.79-1.3,1.87-1.94,2.82c-0.46,0.46-0.62,1.27-1.48,1.29
	c-8.15-8.38-15.8-17.24-24.78-24.78c-8.98-5.62-17.14-12-21-22.36c7.1-2.65,13.13-6.18,12.65-15.1
	c4.35-8.29,11.61-14.12,18.48-19.94c8.22-6.97,14.54-15.73,23-22.35c0.85-0.67,1.9-1.09,2.87-1.63c0.25,1.5-0.95,3.51,0.79,4.44
	C168.69,107.61,173.78,116.24,181.51,121.94"/>
<path class="st3" d="M148.01,204.67c0.49-0.43,0.98-0.86,1.48-1.29c17.89,17.11,35.83,34.17,52.49,52.49
	c-1.98,1.96-0.72,4.59-1.45,6.81c-15.8-12.5-28.97-27.71-43.4-41.62c-3.78-3.65-5.36-4.71-7.22,1.59
	c-5.13,17.38-10.41,34.74-17.13,51.6c-3.63,9.1-8.49,17.51-16.2,25.75c-0.72-7.36-1.15-12.56,3.57-17.81
	c6.44-7.16,7.61-17.09,10.72-25.92C136.87,239.17,142.32,221.88,148.01,204.67"/>
<path class="st1" d="M102.22,157.52c7,7.45,14,14.9,21,22.36c-3.26,8.33-11.18,12.47-17.11,18.31c-13.9,13.7-28.6,26.59-42.48,40.31
	c-7.79,7.7-9.68,27.1-4.94,37.17c1.08,2.29,3.9,4.26,2.23,7.43c-16.24-15.98-32.6-31.84-48.68-47.98
	C1.76,224.61-2.71,211.98,1.68,197.41c4.45-14.75,14.71-23.16,30.04-26.02C55.26,166.99,78.73,162.17,102.22,157.52"/>
</svg>
