<?xml version="1.0" encoding="utf-8"?>
<!-- Generator: Adobe Illustrator 23.1.0, SVG Export Plug-In . SVG Version: 6.00 Build 0)  -->
<svg version="1.1" id="Layer_1" xmlns="http://www.w3.org/2000/svg" xmlns:xlink="http://www.w3.org/1999/xlink" x="0px" y="0px"
	 viewBox="0 0 365 500" style="enable-background:new 0 0 365 500;" xml:space="preserve">
<style type="text/css">
	.st0{fill:#DCF0EF;}
	.st1{fill:#18402E;}
	.st2{fill:#FDFEFF;}
	.st3{fill:#82C341;}
	.st4{fill:#B4B4B4;}
	.st5{fill:#B1B3B1;}
	.st6{fill:#575857;}
	.st7{fill:#2A523E;}
	.st8{fill:#B3E2F0;}
	.st9{fill:#B1E1F0;}
	.st10{fill:#B2E2F1;}
	.st11{fill:#B2E1F3;}
	.st12{fill:#EFF8F7;}
	.st13{fill:#8B8B89;}
	.st14{fill:#B5B4B4;}
	.st15{fill:#8A8B8A;}
	.st16{fill:#8B8C8A;}
	.st17{fill:#5C5D5C;}
	.st18{fill:#E8F5F4;}
	.st19{fill:#183F2E;}
	.st20{fill:#FFFFFF;}
	.st21{fill:#B2E1F1;}
	.st22{fill:#B0E1F1;}
	.st23{fill:#B2E0EF;}
	.st24{fill:#B2E2F0;}
	.st25{fill:#B2E2F2;}
	.st26{fill:#C1BD7D;}
	.st27{fill:#B1DFF2;}
	.st28{fill:#B3E1F1;}
	.st29{fill:#B3E0EF;}
	.st30{fill:#B3E1EF;}
	.st31{fill:#B1E0F1;}
</style>
<path class="st0" d="M56.11,51.79C69.53,37.9,85.26,27.31,102.5,18.71c13.54-6.75,27.61-11.98,42.43-14.79
	c64.01-12.13,120.09,3.76,166.77,49.43c33.35,32.63,51.15,73.06,53.11,119.61c2.46,58.17-18.59,106.96-61.89,146.04
	c-0.64,0.57-1.19,1.23-1.79,1.85c-4.21,5.24-10.36,6.5-16.4,7.49c-21.06,3.44-42.28,5.29-63.63,5.68c-2.14,0.04-4.31,0.16-6.35-0.73
	c-1.96-2.91-1.61-4.84,1.44-5.18c5.76-0.65,10.22-3.53,14.38-7.17c0.43-0.38,0.92-0.81,1.47-0.88c5.5-0.69,10.04-3.66,14.93-5.91
	c3.44-1.59,7.33-2.13,10.55-4.55c2.28-1.71,5.28-1.1,7.99-1.11c2.81-0.01,4.76-0.86,5.04-4.01c0.1-1.15,0.34-2.41,1.16-3.21
	c6.22-6.09,11.1-13.59,18.62-18.25c3.86-2.4,7.3-5.71,11.56-6.42c-8.97,2.49-15.72-2-14.97-10.42c2.38-1.53,4.02-0.54,5.07,1.68
	c1.09,2.3,2.58,3.74,5.22,2.77c0.84-0.31,2.95,0.46,2.35-1.46c-0.75-2.38,3.16-5.33-0.85-7.12c-2.18-0.97-3.51-2-1.54-4.33
	c2.95-0.7,5.72-0.13,8.34,1.23c1.75,0.9,2.98,0.96,3.38-1.37c0.15-0.86,0.52-1.9,1.29-2.16c4.49-1.51,4.39-5.5,5.14-9.07
	c0.24-1.13,0.41-2.4,1.18-3.21c5.27-5.56,5.15-13.59,9.15-19.77c2.75-4.24,2.86-9.24,2.61-14.19c-0.2-3.91,0.18-7.65,2.22-11.23
	c1.83-3.21,1.65-6.7-0.68-9.75c-3.51-4.6-4.16-9.22-0.95-14.34c2.7-4.31,2.53-9.07,0.95-13.74c-0.93-2.76-0.71-5.9-1.76-8.35
	c-2.79-6.55-3.2-13.64-5.74-20.3c-3.38-8.86-8.71-16.56-12.54-25.08c-1.01-2.25-1.84-4.71-3.75-6.22
	c-4.11-3.25-6.55-8.01-10.62-11.26c-1.26-1-1.99-2.47-2.61-3.93c-1.52-3.61-4.78-5.96-6.81-8.86c-4.03-5.76-8.18-6.9-14.66-6.04
	c-4.83,0.64-7.93-3.28-8.55-8.94c-0.27-2.44-1.03-2.98-3.6-3.86c-4.52-1.55-9.1-3.08-13.61-4.72c-1.67-0.61-2.37-2.43-3.13-3.99
	c-0.77-1.57-1.53-3.38-3.38-3.68c-6.24-1.01-11.79-4.66-18.28-4.63c-1.75,0.01-3.42-0.37-4.91-1.38c-0.7-0.47-1.55-1.34-2.31-0.82
	c-3.75,2.54-6.34,0.5-9.09-1.88c-1.64-1.42-3.57-0.47-5.32,0.19c-4.4,1.66-8.64,3.29-12.6-1.23c-1.37-1.56-3.84-0.86-5.8-0.44
	c-4.24,0.9-8.5,1.41-12.84,1.35c-2.03-0.03-4.17,0.14-5.87,1.19c-4.51,2.79-9.41,3.37-14.52,3.07c-3.87-0.23-7.5,1.16-10.85,2.46
	c-5.96,2.32-12.74,2.38-18.03,6.61c-1.86,1.48-4.37,1.31-6.67,1.3c-2.41-0.01-4.1,0.71-4.82,3.29c-0.79,2.84-3,4.3-5.58,5.59
	c-4.21,2.11-8.62,4.04-11.35,8.25c-0.47,0.72-1.18,1.3-1.95,1.68c-7.85,3.86-12.52,11.28-18.89,16.79c-1.24,1.07-1.5,2.36-1.09,3.89
	c0.4,1.48,0.43,3.29-0.87,3.97c-5.15,2.71-6.66,8.95-11.69,11.69c-1.39,0.75-2.02,2.07-2.33,3.48c-0.93,4.22-2.53,8.02-4.7,11.86
	c-2.11,3.73-2.68,8.4-4.11,12.62c-2.67,7.87-5.13,15.88-3.49,24.43c0.24,1.26-0.09,2.71,0.59,3.8c2.19,3.52,1.33,6.77-1.09,9.53
	c-5.8,6.59-5.15,14.35-4.22,22.07c0.54,4.42,1.41,8.79,1.33,13.27c-0.02,1-0.16,2.24,0.46,2.94c4.81,5.45,3.69,12.75,5.85,19.04
	c2.44,7.13,3.86,14.67,6.21,21.89c-0.67,1.54-2.12,1.81-3.51,2.09c-8.24,1.68-16.56,2.96-24.84,4.43c-1.7,0.3-3.42,0.38-4.96-0.68
	C-8.27,196.94-4.17,139.36,29.56,84.13c6.41-10.49,13.69-20.57,23.04-28.84C53.89,54.24,55.58,53.6,56.11,51.79"/>
<path class="st1" d="M214.03,332.42c14.5,0.23,28.92-1,43.34-2.23c8.14-0.7,16.24-1.73,24.3-3.07c6.82-1.13,13.36-2.96,19.45-6.27
	c-1.71,5.86-0.67,11.84-0.57,17.75c0.05,2.87,2.91,4.68,5.12,6.02c2.2,1.33,4.11,3.2,6.47,4.14c4.85,1.92,6.2,5.47,5.51,10.24
	c-1.39,2.03-3.66,2.14-5.74,2.51c-23.63,4.2-47.49,6.7-71.39,8.64c-27.22,2.2-54.55,2.66-81.82,1.76
	c-34.6-1.14-69.05-4.3-103.21-10.2c-2.12-0.37-4.33-0.55-5.54-2.75c-2.36-4.18-1.73-6.6,2.27-9.19c2.03-1.32,3.98-2.78,5.95-4.2
	c3.8-2.75,9.04-4.24,8.27-10.7c-0.56-4.62,0.89-9.49-1.71-13.86c1.16-0.97,2.47-0.79,3.66-0.24c10.64,4.93,22.14,5.85,33.54,7.03
	c13.66,1.41,27.31,3.04,41.06,3.28c1.76-0.01,3.52,0.01,5.28-0.02c1.54-0.32,3.07-0.14,4.61,0.06c0.54-0.03,1.06,0.02,1.59,0.12
	c1.55,0.3,3.05,0.74,4.67,0.73c17.8-0.09,35.61,0.1,53.41-0.11C213.1,331.88,213.59,332.08,214.03,332.42"/>
<path class="st2" d="M57.68,314.48c-11.35-11.21-21.56-23.35-29.86-37.03c-0.74-1.22-1.39-2.49-2.08-3.74
	c0.21-3.18,2.95-3.15,5-3.69c17.77-4.73,35.59-9.31,53.36-14.03c34.58-9.19,69.22-18.13,103.75-27.53c2.65-0.72,6.34,0.41,7.81-3.3
	c2.32-4.59,6.83-4.26,10.92-4.74c1.53-0.18,3.07,0.23,4.53,0.77c10.93,5.76,18.54,14.21,21.27,26.59c2.15,0.19,3.87-2.36,6.1-0.82
	c0.99,4.12-2.04,5.29-4.88,6.19c-6.95,2.22-13.32,5.72-19.98,8.57c-1.03,0.57-2.1,0.33-3.16,0.16c-3.52-0.84-6.04,1.76-9.04,2.69
	c-2.13,0.66-3.97,2.1-6.16,2.72c-14.95,6.44-30.07,12.44-45.19,18.44c-10.74,5.24-22.21,8.57-33.38,12.69
	c-9.1,3.36-18.32,6.31-27.72,8.7c-1.69,0.43-3.04,1.57-4.12,2.97c-0.38,0.27-0.8,0.43-1.26,0.53c-3.84-0.83-7.34,0.67-10.87,1.73
	c-3.29,0.99-6.59,1.94-9.87,2.98C61,315.93,59.2,316.04,57.68,314.48"/>
<path class="st3" d="M49.96,358.96c23.3,4.27,46.79,6.96,70.39,8.96c29.52,2.51,59.08,3.17,88.66,2.17
	c35.3-1.19,70.42-4.55,105.22-10.75c1.13-0.2,2.28-0.23,3.43-0.33c1.72,1.29,1.65,3.16,1.66,5.03c0.03,6.4,0.07,12.81,0.12,19.21
	c-0.6,1.11-1.2,2.22-1.8,3.33c-1.75,2.09-4.3,2.22-6.67,2.58c-18.33,2.8-36.76,4.77-55.24,6.29c-17.33,1.42-34.68,2.22-52.07,2.71
	c-9.62,0.27-19.26,0.98-28.87,0.56c-20.94-0.91-41.91-1.22-62.82-3.13c-18.75-1.72-37.45-3.75-56.09-6.34
	c-2.67-0.37-5.5-0.43-7.62-2.54c-1.6-2.02-0.42-4.66-1.52-6.78c0.01-5.46-0.01-10.93,0.04-16.39
	C46.8,361.35,46.85,359.07,49.96,358.96"/>
<path class="st4" d="M196.79,225.93c2.16,0.97,1.87,1.48-0.27,2.03c-7.21,1.86-14.38,3.87-21.58,5.76
	c-40.16,10.55-80.34,21.09-120.5,31.64c-8.31,2.18-16.62,4.37-24.93,6.55c-1.38,0.36-2.85,0.49-3.76,1.81
	c-3.72-5.31-6.58-11.06-8.81-17.13c10.54-1.83,21.08-3.66,31.61-5.52c0.53-0.09,1.01-0.46,1.52-0.7c1.25-1.7,3.22-1.71,5-2.03
	c5.19-0.94,10.4-1.76,15.6-2.69c16.15-2.66,32.23-5.74,48.36-8.53c22.31-4.28,44.74-7.88,67.15-11.59c0.57-0.09,1.13-0.21,1.68-0.39
	c0.74-0.21,1.49-0.24,2.25-0.24C192.37,225.07,194.76,224.31,196.79,225.93"/>
<path class="st5" d="M143.25,332.25c-26.46-1.76-53.3-0.79-78.51-11.25c-0.87-0.83-1.75-1.66-2.62-2.49
	c-0.19-0.95,0.44-1.33,1.14-1.67c10.33,0.34,20.36,2.73,30.46,4.58c12.8,2.34,25.73,3.99,38.45,6.78c1.03,0.22,1.98-0.13,2.97-0.26
	C138.37,328.38,142.01,328.05,143.25,332.25"/>
<path class="st6" d="M62.92,317.65c-0.27,0.29-0.54,0.58-0.81,0.86c-1.94-0.84-3.45-2.14-4.42-4.04c1.56,1.04,3.02,0.08,4.45-0.34
	c5.16-1.52,10.31-3.07,15.42-4.75c2.18-0.72,4.14-0.77,6.02,0.66c-0.25,2.6-2.57,2.88-4.29,3.44
	C73.92,315.24,68.66,317.41,62.92,317.65"/>
<path class="st0" d="M56.11,51.79c0.91,3.25-1.87,2.8-3.5,3.5C53.44,53.79,54.58,52.6,56.11,51.79"/>
<path class="st1" d="M48.26,386.72c10.25,1.25,20.51,2.39,30.73,3.77c16.51,2.23,33.1,3.68,49.71,4.66
	c21.08,1.25,42.19,2.14,63.31,1.7c27.13-0.56,54.22-1.84,81.23-4.72c14.84-1.58,29.6-3.7,44.39-5.56
	c0.01,22.21,0.02,44.41,0.03,66.61c3.99,7.22,1.64,15.29-5.81,18.91c-9.39,4.56-19.51,6.78-29.71,8.63
	c-16.69,3.03-33.54,4.82-50.44,5.78c-11.6,0.66-23.21,1.48-34.86,1.26c-11.35-0.22-22.71,0.11-34.06-0.08
	c-27.16-0.47-54.22-2.5-80.97-7.28c-9.42-1.68-18.93-3.69-27.57-8.24c-7.42-3.91-9.78-11.42-6.04-18.96L48.26,386.72z"/>
<path class="st7" d="M48.23,453.2c0.01,0.14,0.02,0.29,0.01,0.43c-0.42,15.04,0.08,15.53,16.91,20.98
	c14.59,4.72,29.82,6.61,45.09,8.05c11.68,1.1,23.38,1.89,35.09,2.65c22.13,1.45,44.27,1.1,66.35,0.48
	c22.41-0.63,44.85-2.05,67.02-6.3c9.17-1.76,18.25-3.52,27.07-6.58c10.93-3.8,11.86-5.07,11.87-16.69c0-1.01,0.02-2.01,0.03-3.02
	c8.42,4.86,10.16,12.29,3.23,18.69c-6.54,6.05-14.64,9.54-23.01,12.17c-16.54,5.19-33.58,8.39-50.75,10.35
	c-13.06,1.49-26.19,3.14-39.38,2.77c-6.77-0.18-13.42,1.12-20.19,0.97c-23.48-0.54-46.94-0.93-70.28-4.21
	c-20.19-2.84-40.19-6.15-59.18-13.95c-4.95-2.04-9.44-4.79-13.4-8.35C38.65,466.19,40.32,457.66,48.23,453.2"/>
<path class="st0" d="M143.25,332.25c-2.13-2.29-5.09-2.55-7.88-3.24c-3.52-0.08-6.82-0.81-9.53-3.26c-0.23-2.51,1.41-2.78,3.29-2.69
	c1.85,0.09,3.46,0.99,5.13,1.7c-2.78-1.45-5.27-3.35-8.03-4.78c-3.04-1.57-5.85-3.68-9.6-3.19c-0.99,0.13-2-0.39-2.77-1.05
	c-2.57-2.17-5.56-2.78-8.82-2.78c-1.97,0-4.48,0.16-4.98-2.34c-0.46-2.32,2.09-2.72,3.53-3.77c0.44-0.32,1.02-0.5,1.34-1.49
	c-5.46,2.57-11.39,2.52-16.68,4.88c-1.07,0.48-2.19,0.73-3.31,0.08c-0.13-0.16-0.26-0.31-0.39-0.47c-0.25-2.52,1.72-3.29,3.43-3.71
	c10-2.49,19.65-6.08,29.41-9.28c4.54-1.49,8.94-3.37,13.43-5.02c5.03-1.84,10.12-3.56,15.13-5.46c1.3-0.49,2.4-1.48,3.6-2.23
	c3.48,0.16,6.99-0.42,10.42,0.56c4.31,1.72,8.84,1.93,13.39,2.48c11.58,1.4,23.17,1.14,34.77,1.31c11.98,0.17,23.65-2.17,35.39-3.93
	c3.27-0.49,6.17-2.29,9.32-3.27c0.84-0.26,1.62-0.8,1.71-1.75c0.12-1.31-1.04-1.54-1.93-1.95c-1.84-0.85-3.9-0.96-5.76-1.7
	c-9.57-4.08-19.47-7.32-29.19-11.02c-1.83-0.69-3.97-1.01-4.5-3.43c0.09-1,0.06-2.09,1.37-2.34c7.07-1.34,12.76-6.26,19.81-7.64
	c2.5-0.49,3.49-2.22,3.87-4.5c0.25-1.64,1.51-2.39,2.79-3c6.84-3.26,13.7-6.47,20.53-9.73c1.3-0.62,2.71-0.89,4.18-0.73
	c4.55,0.09,9.1-0.83,13.64-0.02c1.83-0.23,3.68-0.42,5.3-1.45c3.13-2.62,3.13-2.62-0.43-7.15c-0.14-0.66-0.07-1.3,0.18-1.93
	c5.63-6.87,8.02-15.17,10.24-23.5c6.2-23.32,11.53-46.84,16.11-70.54c0.16-0.85,0.35-1.69,0.46-2.54c0.45-3.48-0.15-4.19-3.68-3.67
	c-6.53,0.96-12.99,2.35-19.47,3.63c-1.81,0.36-3.65,0.91-5.51,0.21c-1.01-0.6-1.47-1.78-0.93-2.56c2.18-3.18,0.76-5.66-0.95-8.42
	c-1.21-1.96-0.54-4.48-0.96-7.81c-0.77,3.57-1.64,6.1-3.9,7.72c-2.17,1.56-4.57,2.29-7.26,1.49c-1.91-2.57-1.26-4.11,1.9-4.53
	c0.71-0.09,1.39-0.09,1.79-0.8c0.35-1.01,0.92-1.94,1.05-3.03c-0.59-1.81-2.63-2.48-3.14-4.61c-0.39-1.63-2.55-2.53-4.57-1.82
	c-1.47,0.52-2.9,1.06-4.5,0.7c-0.42-0.11-0.8-0.28-1.17-0.51c-3.59-5.16-1.93-7.84,5.61-8.81c-2.75-2.17-5.31-3.4-8.88-1.65
	c-2.66,1.31-4.64-0.54-5.92-2.88c-1.04-1.91-1.64-4.02-2.03-6.12c-0.64-3.42-2.73-4.79-5.94-5.11c-1.43-0.14-2.86-0.4-4.29-0.33
	c-4.64,0.25-8.53-0.73-10.65-5.48c-0.86-1.93-2.89-2.01-4.8-2.31c-18.42-2.87-36.98-1.66-55.47-1.6
	c-7.11,0.02-14.24,1.52-21.01,4.04c-3.01,1.12-6.17,1.35-9.29,1.81c-4.31,0.64-7.9,2.18-10.35,6.12c-2.12,3.41-5.82,5.45-8.23,8.75
	c-1.48,2.03-4.28,1.88-6.41,0.89c-3.15-1.45-4.43,0.11-5.58,2.59c-0.93,1.98-1.43,4.06-1.75,6.2c-0.38,2.55-1.73,4.32-4.37,4.63
	c-3.37,0.4-5.87,1.73-7.57,4.87c-1.43,2.64-3.83,2.75-6.61,0.78c-0.45,2.87,0.09,5.43-0.55,7.89c-0.46,1.79,1.09,2.03,2.36,2.36
	c1.3,0.33,2.56,0.86,2.69,2.4c0.15,1.67-1.25,2.2-2.47,2.52c-3.08,0.81-3.88,3.11-4.13,5.85c-0.27,3.06-1.27,5.95-4.48,6.71
	c-8.45,2.01-9.05,9.06-10.03,15.56c-0.7,4.65-0.1,9.47-0.18,14.21c-0.03,1.88,0.08,4.03-1.39,5.29c-3.06,2.63-2.96,5.99-2.91,9.47
	c0.05,4.02-0.03,8.05,0.04,12.08c0.03,1.72-0.1,3.53,1.05,4.97c1.56,1.95,2.03,4.06,1.43,6.46c-0.33,1.33-0.25,2.78,0.96,3.51
	c1.33,0.81,1.98-0.71,2.76-1.43c2.6-2.4,5.54-3.49,9.07-2.68c1.49,3.55,0.97,5.15-2.23,5.26c-3.36,0.12-1.5,4.1-4.86,4.38
	c2.45,1.4,4.55,2.23,3.52,4.86c-0.25,0.65-0.02,1.15,0.78,1.12c4.26-0.15,4.17,3.54,5.38,6.08c-0.09,0.43-0.2,0.96-0.55,1.13
	c-2.31,1.13-4.58,2.06-3.71,5.52c0.6,2.41-0.14,5.01,2.03,7.18c2.38,2.38,1.73,4.24-1.62,5.16c-2.86,0.79-5.9,0.87-8.62,2.21
	c-6.77,1.86-13.66,2.93-20.65,3.51c-0.67-0.17-1.95-0.42-1.94-0.51c0.51-4.5-3.21-7.7-3.5-12.09c-0.27-4.04-0.85-8.27-3.31-11.88
	c-0.6-0.87-0.73-2.17-0.79-3.29c-0.18-3.62,0.81-7.49-3.14-10.04c-0.75-0.48-1.11-2.12-1.06-3.19c0.47-9.22-2.49-18.16-2.01-27.43
	c0.28-5.51,3.89-9,6.36-13.15c1.24-2.08,1.77-3.39-0.03-5.2c-0.55-0.55-0.86-1.51-0.96-2.32c-1.32-11,0.37-21.54,4.98-31.62
	c0.47-1.03,0.72-2.16,1.01-3.26c0.86-3.35,0.69-6.92,4.06-9.48c2.19-1.67,1.11-5.14,1.99-7.71c0.81-2.35,1.23-4.79,4.29-5.26
	c0.54-0.08,1.29-0.39,1.48-0.81c2.04-4.5,5.3-7.8,9.55-10.24c0.65-0.37,0.69-1.23,0.14-1.9c-2.84-3.43-0.32-5.01,2.22-6.7
	c3.01-1.99,5.58-4.97,7.35-7.63c3.91-5.84,11.36-6.97,15.01-13.11c1.64-2.76,5.99-4.31,9.42-5.49c2.91-1,4.56-2.56,4.8-5.31
	c0.25-2.85,1.61-3.68,4.2-3.61c3.99,0.11,8.1,0.65,10.76-3.62c0.78-1.26,2.74-0.43,4.09-0.84c5.65-1.72,11.33-3.38,16.93-5.26
	c2.99-1.01,5.99-0.52,8.97-0.57c3.36-0.06,6.61-0.17,9.27-2.64c0.49-0.45,1.27-0.74,1.94-0.82c7.66-0.9,15.33-1.76,23-2.61
	c1.58-0.17,2.81,0.35,3.5,1.9c1.22,2.76,3.33,2.79,5.75,1.83c1.86-0.73,3.78-1.32,5.57-2.18c2.78-1.34,5.21-0.75,6.87,1.59
	c1.79,2.52,3.16,3.69,5.44,0.55c1.26-1.73,2.81-1.36,3.74,0.42c1.01,1.93,2.63,2.03,4.39,1.91c7.25-0.53,13.26,4.14,20.25,4.84
	c1.89,0.19,2.41,2.25,2.88,3.96c0.99,3.57,3.45,5.14,7.05,5.01c2.56-0.09,4.85,0.23,6.38,2.68c0.9,1.43,2.06,1.7,3.61,0.56
	c2.68-1.98,3.54-0.55,3.51,2.14c-0.01,0.86-0.02,1.73,0.01,2.59c0.2,6.58,5.34,10.05,11.57,7.82c4.37-1.56,7.29-0.47,8.84,3.8
	c0.82,2.24,1.79,3.67,4.28,4.14c2.19,0.41,3.05,2.28,3.77,4.3c1.18,3.3,3.36,5.93,5.45,8.77c4.69,6.39,13.16,10.24,13.83,19.48
	c0.07,0.92,0.65,2.11,1.37,2.61c5.6,3.84,6.75,10,8.42,15.87c0.48,1.69,1.01,3.05,2.5,4.27c2.16,1.76,2.13,4.55,2.13,7.16
	c-0.01,2.83-0.56,5.83,2.57,7.65c0.41,0.24,0.78,1.02,0.72,1.49c-0.68,5.61,1.64,10.67,2.7,15.97c0.89,4.43-0.28,8.72-2.82,12.23
	c-2.99,4.12-1.15,7.32,1.07,10.54c3.53,5.11,3.78,8.52,0.28,13.74c-0.98,1.46-1.1,2.91-1.08,4.48c0.07,6.69,0.88,13.62-2.74,19.63
	c-2.85,4.72-3.17,10.59-6.03,14.74c-3.09,4.5-4.96,8.73-5.18,13.98c-0.05,1.32-0.98,2.12-2.28,2.17c-3.04,0.13-4.18,1.47-3.21,4.48
	c0.67,2.08-0.47,3.09-2.14,1.95c-3.45-2.35-7.45-2.69-11.25-3.75c-3.08,2.71-6.6,4.88-9.49,7.82c1.4,7.5,4.63,10.24,11.98,10.32
	c1.75,0.02,2.99-0.7,4.17-1.86c0.63-0.62,1.44-1.94,2.42-0.75c0.9,1.09,0.25,2.46-0.98,2.75c-6.21,1.48-10.42,6.46-16.02,8.96
	c-0.9,0.4-2.01,0.51-2.5,1.54c-2.29,4.84-6.78,7.68-10.33,11.37c-2.28,2.38-4.95,4.39-4.4,8.35c0.21,1.52-1.18,3.21-2.53,3.01
	c-6.9-1.04-12.45,2.49-18.42,4.78c-3.01,1.15-6.58,0.97-8.41,4.41c-0.28,0.53-1.23,1.08-1.82,1.02c-7.69-0.74-12.11,5.33-17.94,8.46
	c-1.51,0.81-3.28,1.42-4.95,1.01c-2.9-0.71-3.66,0.65-3.66,3.12l-0.26,0.18l-0.27-0.17c-9.35-0.46-18.69,1.2-28.1-0.25
	c-3.83-0.59-7.92-0.29-11.96,0.23c-6.66,0.86-13.45,0.59-20.18,0.03l-0.26,0.16l-0.25-0.17c-2.55-2.21-5.27-4.11-9.09-4.86
	c1.94,1.7,6.18,0.47,4.77,4.81C146.69,332.34,144.97,332.3,143.25,332.25"/>
<path class="st8" d="M287.42,265.93c1.24-4.94,5.05-6.77,9.49-7.82c0.11,0.7,0.22,1.4,0.33,2.1c4.92-1.41,3.69,4.65,6.85,5.28
	c-0.88,1.93-2.84,0.67-3.96,1.93c0.46,0.65,1,1.3,1.4,2.02c0.27,0.48,0.41,1.06,0.47,1.61c0.05,0.58-0.58,1.47-0.75,1.25
	c-2.6-3.4-4.45,3.43-6.65,0.51c-0.9-1.2-0.99-2.67-2.99-1.42c-1.01,0.63-1.9-0.37-1.37-1.19
	C292.73,266.37,288.9,266.97,287.42,265.93"/>
<path class="st9" d="M277.53,61.51c0.01,1.99-4.06,6.28-5.91,6.25c-1.53-0.03-6.07-4.63-6.05-6.14c0.01-1.27,4.86-5.52,6.29-5.16
	C274.53,57.12,276.65,58.69,277.53,61.51"/>
<path class="st10" d="M33.78,161.62c3.14,0.2,5.12,2.42,5.23,5.01c0.12,2.81-2.29,4.83-5.08,5.52c-1.85,0.46-6.29-4.04-5.63-5.79
	C29.22,163.98,30.73,161.74,33.78,161.62"/>
<path class="st11" d="M339.9,179.81c-0.33,3.28-1.29,5.66-4.86,5.58c-3.42-0.08-4.4-2.99-4.52-5.26c-0.15-2.68,1.9-4.8,4.95-4.7
	C338.31,175.52,339.82,177.28,339.9,179.81"/>
<path class="st0" d="M153.25,332.45c5.29-0.03,10.58-0.26,15.86-0.03c3.91,0.17,7.16-2.39,11.26-1.78c6.67,1,13.36,2.49,20.21,1.74
	c1.82-0.2,3.59,0.05,5.3-1.18c2.76-1.97,4.84,2.04,7.6,1.23c-11.95,1.33-23.95,0.63-35.93,0.68
	C169.47,333.16,161.33,333.62,153.25,332.45"/>
<path class="st0" d="M148.42,332.39c-0.21-2.26-1.75-2.67-3.63-2.63c-1.48,0.03-2.82-0.43-3.93-1.37c-0.77-0.65-0.88-1.39,0.23-1.95
	c3.29-1.66,10.76,2.18,11.65,5.99C151.29,332.79,149.85,332.74,148.42,332.39"/>
<path class="st12" d="M196.79,225.93c-2.31,0.09-4.63,0.18-6.94,0.27c-0.36-0.48,0.2-1.32,0.02-1.35c-1.03-0.17-1.33,0.66-1.56,1.47
	c-8.66,2.61-17.67,3.29-26.51,4.92c-12.64,2.34-25.33,4.39-38.01,6.54c-1.55,0.26-3.12,0.42-4.68,0.63c-1.81-0.86-1.94-2.41-0.6-3.4
	c3.27-2.41,1.18-4.39-0.19-6.49c-4.06-6.22-7-13.02-10.05-19.75c-0.89-1.98-1.1-4.17-1.03-6.34c0.1-3.37-0.19-6.58-2.51-9.32
	c-0.84-0.99-1.32-2.32-1.11-3.63c0.47-2.93-0.23-5.68-0.93-8.48c-0.66-2.63-0.39-5.22,1.72-7.19c2.15-2.01,4.57-1.33,6.83-0.18
	c2.85,1.45,5.9,0.97,8.87,1.15c0.59-0.04,1.18-0.12,1.77-0.04c1.36,0.08,2.35-0.85,3.51-1.31c0.62-0.32,1.22-0.67,1.76-1.1
	c1.2-1.11,0.77-2.62,0.99-3.97c0-0.56-0.09-1.12-0.07-1.68c0.26-1.7-0.9-2.81-1.7-4.06c-0.27-0.28-0.51-0.57-0.76-0.86
	c-1.23-1.07-2.57-1.8-4.27-1.57c-0.4,0-0.79-0.02-1.18-0.04c-1.7,0.05-2.93,1.03-4.17,2.04c-1.33,1.08-2.87,1.42-4.42,0.57
	c-1.57-0.86-2.19-2.41-1.83-4.05c0.84-3.82,0.95-7.69,1.17-11.56c0.06-1.01,0.31-2.12,1.08-2.76c2.63-2.21,3.33-5.22,3.9-8.37
	c0.36-1.99,0.81-4.35,3.83-2.46c0.53,0.33,1.19,0.43,1.54-0.15c2.61-4.34,8.94-4.91,10.47-10.41c0.34-1.22,1.53-2.05,2.61-2.81
	c0.46-0.33,1.23-0.77,1.03-1.25c-2.56-6.02,2.76-4.34,5.21-5.3c6.78-2.66,14.12-3.53,20.71-7.02c4.17-2.21,9.33-0.98,13.99-1.84
	c0.42-0.08,0.87-0.1,1.29-0.03c6.25,1.1,11.34-1.33,16.01-5.14c1.09-0.89,2.27-2.14,3.79-1c1.62,1.22,0.95,2.8,0.26,4.29
	c-0.4,0.87-1.38,1.73-0.63,2.74c0.77,1.03,2.07,0.63,2.75,0.08c3.98-3.22,6.09-1.13,7.78,2.51c0.18,0.38,0.57,0.64,1,0.76
	c5.09-4.37,6.08-4.27,10.17,1.58c1.44,2.06,3.6,2.42,5.64,2.71c3.94,0.56,7.01,2.12,9.24,5.56c1.63,2.52,4.63,3.31,7.16,4.63
	c2.64,1.39,4.5,3.18,3.83,6.45c-0.27,1.33,0.15,1.87,1.31,2.66c3,2.05,4.92,4.97,6.48,8.36c1.59,3.44,2.57,7.73,7.53,8.52
	c1.84,0.29,2.04,2.18,1.96,3.86c-0.08,1.56-0.99,3.03-0.54,4.9c1.72-0.77,2.25-2.49,2.99-3.77c4.07-7.04,10.06-12.99,11.89-21.31
	c0.46-2.1,2.03-3.45,4.43-3.34c2.75,1.93,0.89,4.13,0.16,6.05c-5.53,14.29-12.27,28-20.05,41.2c-1.71,2.91-2.76,6.36-6,8.17
	c-1.02,0.46-2.43,0.36-3.02,1.42c-2.7,4.78-7.22,8.48-8.4,14.16c-1.37,3.9-4.82,6.08-7.64,8.61c-6.1,5.48-13.02,9.89-20.59,13.17
	c-0.77,0.16-1.55-0.07-2.32,0.04c-4.35-1.27-8.55-0.8-12.77,0.81C197.61,223.95,196.7,224.36,196.79,225.93"/>
<path class="st13" d="M211.74,222.62c0.33-0.62,0.83-0.88,1.52-0.71c7.37-0.65,14.57,0.88,21.82,1.65
	c10.42,1.1,20.84,2.23,31.24,3.46c0.29,0.03,0.58,0.02,0.86,0.08c2.18,0.44,5.3,0.2,5.42,3.06c0.12,2.67-2.73,3.3-5.02,3.82
	c-0.84,0.19-1.69,0.33-2.48,0.71c-6.47,0.98-11.46,5.4-17.47,7.53c-3.3,1.17-6.31,3.14-9.45,4.76c-2.17,1.03-4.35,2.05-6.66,3.15
	C229.57,237.46,221.91,229.13,211.74,222.62"/>
<path class="st14" d="M159.67,285.78c-3.47-0.01-6.92-0.13-10.14-1.64c14.93-5.22,29.36-11.69,44.05-17.51
	c0.53-0.21,1.07-0.39,1.6-0.58c0.35,0.35,0.68,0.72,0.99,1.11c0.61,0.82,0.95,1.76,1.23,2.73c2.92,10.16-1.63,15.92-12.96,16.4
	c-3.53-0.33-7.04-0.24-10.49,0.72C169.15,287.11,164.37,286.9,159.67,285.78"/>
<path class="st15" d="M126.01,325.28c3.12,1.24,6.24,2.49,9.35,3.73c-4.76,1.66-9.25-0.56-13.75-1.25
	c-18.21-2.82-36.34-6.13-54.49-9.26c-1.41-0.24-2.8-0.56-4.21-0.84c6.61-3.28,14.14-4.04,20.65-7.61c0.32-0.07,0.64-0.13,0.96-0.2
	l0.01,0.05c11.87,1.84,22.5,7.44,33.7,11.28C120.99,322.13,124.3,322.27,126.01,325.28"/>
<path class="st16" d="M213.15,261.44c10.77,4.11,21.54,8.21,32.31,12.32c0.39,0.15,0.76,0.36,1.15,0.54
	c-1.25,1.7-3.02,1.33-4.69,1.09c-13.13-1.89-26.21-4.05-39.3-6.19c-1.27-0.21-2.53-0.51-3.39-1.61c-0.77-1.94,0.71-2.45,1.98-3.07
	c3.05-1.48,6.2-2.71,9.39-3.86C211.45,260.93,212.3,261.19,213.15,261.44"/>
<path class="st17" d="M210.6,260.67c-1.24,3.02-4.6,2.28-6.73,3.77c-1.36,0.95-3,1.52-4.52,2.25c-1.49,1.43-2.93,1.25-4.31-0.17
	c0.15-0.13,0.2-0.29,0.14-0.48c3.79-1.66,7.6-3.3,11.37-5C207.88,260.45,209.16,259.78,210.6,260.67"/>
<path class="st18" d="M279.78,130.28c-2.14,0.82-3.38,2.04-3.76,4.63c-0.63,4.33-3.13,7.88-5.71,11.45
	c-2.98,4.11-6.02,8.28-7.93,13.07c-0.33,0.83-0.42,1.69-1.48,1.82c-1.26,0.16-1.64-0.71-2.14-1.67c-1.03-1.98-0.01-3.55,0.61-5.31
	c0.86-2.43,0.63-4.51-2.75-3.95c-1.85,0.3-2.1-0.61-3.01-1.95c-3.08-4.52-4.21-10.16-8.24-14.11c-0.67-0.65-1.11-1.33-2.1-0.68
	c-0.84,0.55-1.78,1.38-2.57,0.16c-0.58-0.91,0.52-1.47,0.93-2.17c1.66-2.86,1.38-5.06-1.94-6.59c-3.99-1.84-7.98-3.49-10.26-7.93
	c-1.61-3.15-5.72-2.05-8.65-2.82c-2.72-0.71-4.54-1.53-4.97-4.36c-0.3-1.95-1.63-2.6-3.32-2.76c-1.52-0.14-2.35,0.73-2.79,2.14
	c-1.17,3.77-2.77,2.41-4.29,0.27c-0.57-0.81-1.02-1.75-1.34-2.7c-0.67-1.98-1.36-2.8-3.11-0.75c-0.79,0.92-2.1,1.44-3.24,2.01
	c-2.21,1.1-3.1-1.07-4.24-2.06c-1.58-1.36,0.61-1.69,1.11-2.49c0.53-0.84,1.16-1.63,1.66-2.49c0.39-0.68,0.39-1.47-0.32-1.91
	c-0.76-0.47-1.62,0.08-1.77,0.69c-0.85,3.44-6.39,1.89-6.53,6.13c0,0.1-1.87,0.14-2.86,0.19c-4.43,0.25-8.92,0.35-13.31,0.3
	c-6.08-0.07-11.04,2.76-16.5,4.28c-6.49,1.82-12.67,4.74-19.49,5.16c0.02,1.28,0.86,1.29,1.48,1.54c0.83,0.33,1.65,0.7,1.57,1.76
	c-0.08,1.03-1.19,1.07-1.74,1.61c-4.84,4.68-9.81,9.26-14.21,14.33c-1.89,2.18-1.78,2.55-4.87-1.6c-0.43,2.55-0.85,4.88-1.2,7.23
	c-0.13,0.85-0.01,1.96-0.88,2.29c-4.15,1.59-3.54,5.08-3.42,8.33c0.09,2.5-0.33,4.86-1.2,7.16c-0.54,1.42-0.14,2.63,1.09,3.37
	c1.1,0.66,2.29,0.28,3.14-0.63c1.55-1.63,3.22-2.88,5.64-2.44c0.82,2.2,0.14,3.64-1.86,4.96c-3.27,2.15-3.36,4.98-0.02,7.34
	c1.99,1.41,2.68,2.71,1.87,4.9c-4.13,0.16-8.13,0.44-12.03-1.9c-2.69-1.61-5.51,0.98-5.12,4.66c0.4,3.83,2.94,7.42,1.11,11.51
	c-0.16,0.36,0.25,1.22,0.65,1.53c4,3.18,2.98,7.63,3.38,11.86c0.39,4.13,0.61,8.58,4.67,11.34c0.86,0.59,1.16,1.58,1.26,2.64
	c0.5,5.38,4.1,9.19,7.16,13.1c1.74,2.23,1.64,3.12-0.78,3.99c-1.79,0.64-3.35,1.28-1.99,3.61c-10.37,2.64-21.01,3.85-31.52,5.81
	c-5.6,1.04-11.26,1.77-16.89,2.64c2.22-2.42,5.41-2.3,8.22-3.18c0.93-0.29,2.13-0.35,2.45-1.47c0.39-1.37-0.88-1.69-1.75-1.97
	c-1.72-0.54-2.09-1.72-2.02-3.3c0.05-1.29,0.16-2.59-0.02-3.86c-0.52-3.62-1.94-7.72,4.46-6.81c0.2,0.03,0.49-0.64,0.74-0.98
	c-0.11-4.81,0.65-5.54,5.47-4.96c-0.19-1.97-1.89-4.18,0.8-5.73c0.68-0.39-1.37-5.88-2.31-5.91c-2.95-0.06-3.99-2.5-5.7-4.12
	c-3.97,0.55-8.08,0.77-10.11,5.2c-0.39,0.86-1.42,1.91-2.42,1.19c-1.81-1.3-3.44-3.67-2.62-5.46c1.47-3.23,0.81-5.23-1.61-7.37
	c-0.57-0.5-0.47-1.9-0.47-2.88c-0.04-6.33-0.03-12.65-0.01-18.97c0.01-1.26-0.39-2.95,1-3.51c3.93-1.6,3.33-4.86,3.31-7.98
	c-0.02-4.46,0.04-8.91-0.03-13.37c-0.03-2.23,0.3-4.29,1.82-6.02c0.37-0.43,1.05-1.04,0.95-1.36c-2.29-7.24,4.32-6.72,7.74-8.36
	c2.75-1.31,4.22-2.65,4.19-5.64c-0.04-4.11,0.78-7.57,6-7.54c0.72,0,1.51-0.31,1.2-1.3c-0.24-0.8-0.95-0.83-1.73-0.88
	c-5.02-0.3-5.2-0.58-3.57-5.08c0.83-2.29-0.58-4.49-0.25-6.77c0.13-0.91-0.83-2.09,0.47-2.68c1.26-0.58,1.74,0.57,2.28,1.39
	c2.07,3.15,4,2.72,5.01-0.59c1.17-3.82,3.96-4.71,7.27-4.7c2.97,0.01,4.16-1.18,4.06-4.12c-0.16-4.61,3.16-7.86,4.94-12.15
	c1.96,1.92,3.93,3.57,6.75,3.27c0.99-0.1,2.39,0.18,2.71-0.87c1.56-5.12,7.54-6.36,9.52-11.27c1.28-3.18,5.14-3.75,8.09-4.1
	c8.89-1.05,17.22-4.4,26-5.79c1.41-0.22,2.84-0.39,4.26-0.39c10.92-0.03,21.87,0.43,32.77-0.16c8.97-0.48,17.59,2.04,26.46,1.91
	c2.52-0.04,4.01,1.58,4.66,3.79c0.95,3.23,3.12,4.19,6.21,3.94c1.14-0.09,2.3-0.03,3.45-0.01c8.18,0.1,8.9,0.64,11.24,8.32
	c0.5,1.64,0.84,3.37,1.63,4.86c1.05,1.97,2.61,3.21,4.8,1.2c2.19-2.01,4.25-1.83,6.5,0.06c1.3,1.09,2.95,1.75,4.43,2.62
	c0.7,0.41,1.8,0.67,1.44,1.77c-0.32,1-1.3,0.97-2.18,0.77c-0.7-0.16-1.38-0.5-2.08-0.53c-2.06-0.09-4.28,0.21-5.54,1.79
	c-1.35,1.69,0,3.48,1.04,5.04c1.59,1.66-0.66,3.13-0.22,4.72c2.25,3.61,6.37,5.73,7.91,9.9c5.95-0.26,9.65-2.89,10.02-9.27
	c0.05-0.78,0.16-2.33,1.52-2.2c1.49,0.14,1.41,1.56,1.46,2.69c0.11,2.42-0.81,6.03,0.42,7.06c4.69,3.89,2.41,7.39,0.46,11.17
	C281.43,127.37,280.41,128.72,279.78,130.28"/>
<path class="st2" d="M188.32,226.31c-0.23-3.03,0.79-3.41,5.08-1.81c-0.77,1.48-2.83,0.24-3.55,1.69
	C189.34,226.23,188.83,226.27,188.32,226.31"/>
<path class="st19" d="M279.78,130.28c-1.3-2.65-0.38-4.06,2.46-4.38c8.48-1.58,16.96-3.16,25.45-4.72c4.51-0.83,6.24-0.99,5.07,4.99
	c-4.83,24.87-10.29,49.6-16.88,74.05c-2.27,8.43-4.07,17.29-11.09,23.57c-0.18,0.22-0.29,0.52-0.5,0.68
	c-3.39,2.59-5.37,5.75-4.2,10.21c-4.99-0.01-9.98-0.01-14.98-0.01c2.03-2.06,5.24-2.31,7.39-4.93c-3.95-1.35-7.93-1.3-11.78-1.76
	c-15.48-1.87-30.99-3.56-46.49-5.34c-0.35-0.04-0.65-0.48-0.98-0.73c10.58-5.78,20.93-11.86,28.54-21.58
	c2.57-5.67,7.18-10.03,10.02-15.53c0.19-0.37,0.71-0.32,1.09-0.03c4.73-5.27,7.41-11.8,10.82-17.87
	c5.77-10.27,10.52-21.05,15.02-31.93C279.34,133.54,280.63,132.1,279.78,130.28"/>
<path class="st20" d="M195.05,266.52c1.44,0.06,2.87,0.11,4.31,0.17c7.27,2.16,14.83,2.66,22.26,3.9
	c8.31,1.38,16.66,2.49,24.99,3.72c2.54,0.67,5.09,1.32,7.63,2c1.42,0.38,2.74,0.84,2.93,2.66c0.21,2.01-1.19,3-2.58,3.54
	c-3.83,1.49-7.69,3.16-11.69,3.92c-18.62,3.53-37.49,4.61-56.35,3.43c-8.98-0.56-18.29-0.26-26.87-4.07
	c4.9-0.02,9.79-0.05,14.69-0.07c3.35-1.05,6.85,0.13,10.22-0.65c1.67-0.31,3.35-0.55,5-0.94c5.46-1.29,7.66-4.15,7.13-9.76
	C196.46,271.72,195.62,269.14,195.05,266.52"/>
<path class="st0" d="M126.01,325.28c-13.83-5.13-27.65-10.25-41.48-15.38c6.8-1.97,13.6-3.93,20.39-5.9c1.02-0.3,2.22-1.52,3-0.06
	c0.69,1.3-0.88,1.94-1.63,2.68c-0.8,0.79-1.87,1.29-2.78,1.98c-0.91,0.68-3.14,0.15-2.59,2.06c0.42,1.45,2.22,0.97,3.46,0.95
	c3.93-0.07,7.78-0.08,10.55,3.44c0.31,0.39,1.09,0.77,1.53,0.66c6.7-1.63,10.59,3.9,15.71,6.21c1.38,0.62,2.45,1.87,4.19,1.87
	c0.99,0,2.31,0.33,2,1.63c-0.31,1.32-1.6,0.74-2.55,0.64c-1.39-0.15-2.69-0.38-4.06-0.9C130.03,324.51,127.82,322.66,126.01,325.28"
	/>
<path class="st21" d="M68.62,117.47c0.67-1.61-0.02-4.3,2.34-4.57c2.25-0.26,1.95,2.36,2.77,3.84c0.94-0.38,1.82-0.82,2.75-1.09
	c0.76-0.22,1.63-0.95,2.37-0.12c0.7,0.78,0.18,1.65-0.22,2.38c-1.24,2.25-1.27,3.8,1.93,3.88c0.87,0.02,1.79,0.49,1.73,1.53
	c-0.07,1.25-1.28,1.63-2.19,1.66c-4.18,0.15-3.17,1.99-1.53,4.21c0.67,0.9,1.76,2.09,1.04,3.04c-1.04,1.38-2.33,0.04-3.41-0.48
	c-1.18-0.57-2.37-2.24-3,0.57c-0.31,1.38-0.41,3.64-2.51,3.22c-1.76-0.35-1.74-2.37-1.75-3.99c0-0.41-0.17-0.82-0.31-1.47
	c-0.59,0.27-1.05,0.52-1.55,0.71c-1.4,0.52-2.77,2.37-4.22,1.2c-1.76-1.42,0.15-2.78,0.85-4.06c0.88-1.63,0.89-2.74-1.38-2.78
	c-1.05-0.02-2.18-0.25-2.43-1.37c-0.34-1.52,1-1.82,2.08-2.21c0.85-0.31,1.41-0.79,1.53-1.82C64.07,115.05,64.1,115.05,68.62,117.47
	"/>
<path class="st22" d="M81.05,204.57c1.83-0.91,2.7,0.27,3.3,1.65c0.41,0.96,0.83,1.45,1.89,1.03c3.01-1.18,4.1-0.11,3.18,2.9
	c-0.49,1.6,0.36,1.99,1.55,2.43c0.76,0.28,1.83,0.61,1.6,1.69c-0.19,0.9-1.19,1.14-2,1.41c-1.07,0.36-3.11,0.04-1.69,2.2
	c0.92,1.4,2.77,2.87,0.85,4.37c-1.65,1.29-3.11-0.63-4.6-1.7c-0.84,1.71-1.59,3.21-2.33,4.72c-1.06-0.53-2.15-1.24-2.32-2.4
	c-0.36-2.55-1.33-2.84-3.32-1.39c-0.69,0.5-1.73,0.54-2.39-0.16c-0.92-0.97-0.28-1.89,0.42-2.63c1.96-2.06,1.27-2.86-1.29-2.96
	c-1.07-0.04-2.11-0.57-2.33-1.6c-0.31-1.42,1.12-1.51,1.98-1.71c2.07-0.47,1.94-1.75,1.45-3.26c-0.51-1.58,0.45-2.57,1.64-1.86
	C80.2,209.46,80.31,206.64,81.05,204.57"/>
<path class="st23" d="M268.35,116.46c-0.89-0.08-1.7-0.35-2.11-1.2c-0.24-0.5-0.39-1.07-0.47-1.62c-0.52-3.54-5.38,2.86-4.21-1.39
	c1.02-3.71-0.76-3.23-2.64-3.88c-0.6-0.21-0.42-0.93,0.01-1.4c0.37-0.42,0.57-1.11,1.08-1.26c1.35-0.39,2.36-0.74,1.1-2.37
	c-0.24-0.31-0.04-1.1,0.5-1.46c0.85-0.09,2.16,0.14,2.48-0.31c3.07-4.35,5.2,1.37,7.92,0.69c0.48-0.12,0.77,0.97,0.49,1.41
	c-1.39,2.19-0.3,2.4,1.67,2.67c1.96,0.27,1.97,1.39,0.32,2.45c-1.19,0.92-2.19,1.9-0.88,3.46c-0.26,1.32-0.75,2.96-2.35,2
	C267.91,112.23,268.58,114.79,268.35,116.46"/>
<path class="st24" d="M204.51,53.51c-2.37,0.69-4.38,4.82-7.26,0.77c-0.08-0.11-0.26-0.29-0.31-0.26c-6.02,2.88-4.92-2.91-4.93-4.91
	c-0.02-4.22,3.18-6.34,7.31-6.83c2.98,0.89,5.31,2.11,6.28,5.64C206.25,50.29,203.86,51.5,204.51,53.51"/>
<path class="st10" d="M202.83,318.6c-0.06-2.83-3.27-5.32-0.89-8.43c1.83-2.39,4.07-3.91,7.08-2.6c1.41,0.62,2.74,0.5,4.12,0.62
	c0.42,2.06,2.36,3.68,1.78,6.04l0,0.02c0.15,4.76-2.55,6.66-6.92,6.89l0.01,0C206.48,319.86,204.71,319.12,202.83,318.6"/>
<path class="st25" d="M108.17,74.33c-1.68,0.03-5.94-4.59-5.83-6.34c0.1-1.52,4.66-5.54,6.11-5.39c1.58,0.17,6.12,4.91,5.48,5.99
	C112.54,70.93,112.32,74.58,108.17,74.33"/>
<path class="st26" d="M280.09,234.69c-3.78-4.8-3.37-6.66,2.06-9.49c0.89-0.46,1.77-0.93,2.65-1.4c0.03,0.5,0.06,1,0.09,1.5
	c2.86,2.3,3.38,4.86,0.86,7.76C283.98,234.04,282.32,235.35,280.09,234.69"/>
<path class="st0" d="M204.51,53.51c-0.7-0.48-1.78-1.08-1.19-1.95c2.73-4,1.17-6.13-2.88-7.51c-0.51-0.17-0.75-1.16-1.11-1.77
	c1.97,0.42,4.96-1.25,5.74,1.32C206.03,46.76,208.23,50.44,204.51,53.51"/>
<path class="st0" d="M207.99,321.12c1.07-0.8,0.99-3.07,3.36-2.26c2.16,0.74,2.51-0.51,1.7-2.23c-1-2.13,0.19-2.41,1.86-2.4
	c0.91,1.99,1.79,4.48,0.01,5.9C213.13,321.57,210.59,322.91,207.99,321.12"/>
<path class="st18" d="M197.64,63.07c-1.27-0.26-2.89,0.27-2.82-0.99c0.14-2.28,2.26-1.6,3.67-1.63c1.14-0.02,3.29-0.51,3.04,1.17
	C201.19,63.9,198.5,61.77,197.64,63.07"/>
<path class="st0" d="M285.73,233.06c1.37-2.77,0.23-5.26-0.86-7.76C289.29,227.47,289.53,229.64,285.73,233.06"/>
<path class="st0" d="M261.59,101.87c0.54,2.44,1.01,4.86-2.67,5.1c-0.39-2.04,1.64-3.25,1.73-5.13
	C260.97,101.85,261.28,101.86,261.59,101.87"/>
<path class="st0" d="M202.83,318.6c2.78-1.32,4.31-0.08,5.16,2.53C205.88,321.1,204.03,320.51,202.83,318.6"/>
<path class="st0" d="M214.91,314.22c-0.47-2.05-2.85-3.53-1.78-6.03C215.07,309.8,216.2,311.66,214.91,314.22"/>
<path class="st18" d="M69.75,224.06c2.09,0.42,3.44,0.73,4.02,2.21c0.08,0.21-0.4,0.92-0.62,0.92
	C71.47,227.21,70.86,225.9,69.75,224.06"/>
<path class="st0" d="M273.59,112.23c-0.96-0.71-2.47-1.29-2.03-2.71c0.4-1.29,1.89-0.61,2.91-0.75
	C274.18,109.93,273.89,111.08,273.59,112.23"/>
<path class="st2" d="M217.53,176.89c-0.26,2.21,1.02,5.82-3.73,3.91c-0.75-0.3-2.03,0.47-2.05,1.72c-0.03,1.17,0.98,1.23,1.84,1.31
	c1,0.09,2.03,0.01,2.99,0.25c1.24,0.3,1.95,1.3,1.98,2.54c0.04,1.39-1.16,1.59-2.14,1.51c-3.27-0.24-3.74,1.93-3.17,4.16
	c1.38,5.38-1.61,10.39-0.98,15.67c0.25,2.1-1.1,2.72-2.97,2.66c-6.19-0.22-12.2,1.48-18.35,1.83c-2.74,0.16-5.52,1.22-6.55,4.14
	c-0.77,2.18-2.17,2.79-4.17,2.86c-4.55,0.16-7.82-3.26-11.96-4.31c-0.84-0.21-1.61-1.73-0.9-2.97c0.64-1.12,1.62-1.47,2.95-1.03
	c1.06,0.36,2.51,0.8,2.82-0.81c0.28-1.46-1.2-1.88-2.25-2.13c-6.24-1.46-10.27-7.3-16.78-8.35c-1.85-0.3-2.25-2.35-2.24-4.22
	c0.03-4.27,0.14-8.3-2.85-12.2c-2.69-3.51-0.07-14.06,3.01-17.49c3.5-3.89,8.64-6.32,10.48-11.73c0.19-0.55,1.02-1.14,1.64-1.24
	c11.36-1.89,22.73-3.81,34.33-2.71c0.68,0.06,1.75,0.31,1.92,0.75c1.49,3.88,3.68,6.63,8.26,7.1c1.24,0.13,0.51,1.57-0.39,2.25
	c-1.32,1.01-2.98,0.89-4.56,1.33c4.62,2.02,4.78,2.57,1.33,5.35c2.29,1.29,4.39,2.44,3.26,5.88c-0.65,1.97,1.82,2.71,3.47,2.99
	c1.82,0.31,3.73,0.14,5.59,0.19c0.23,0.14,0.33,0.3,0.3,0.49C217.64,176.79,217.59,176.89,217.53,176.89"/>
<path class="st27" d="M217.53,176.89c-0.01-0.27-0.06-0.53-0.15-0.79c-0.03-1.83,0.59-4.39-2.74-2.14c-0.98,0.66-2.3,0.74-3.16-0.28
	c-0.81-0.95,0.04-1.86,0.48-2.74c0.25-0.49,0.4-1.02,0.59-1.54c-6.46-1.8,0.51-5.34-0.99-7.78c-0.06-0.1-0.05-0.32,0.02-0.42
	c0.3-0.44,0.9-1.24,0.91-1.24c3.21,2.29,5.94-2.73,7.61-1.38c2.29,1.86,4.1,0.2,5.83,0.8c2.71,0.93-0.7,3.5,0.87,5.21
	c3.14,3.42,3.06,3.49-1.56,4.93c-0.2,1.04,0.73,1.45,1.21,2.11c0.67,0.91,1.74,1.78,0.52,2.95c-1.06,1-2.17,0.55-3.06-0.3
	c-1.91-1.83-2.76-1.58-3.01,1.17C220.69,177.58,219.35,178.04,217.53,176.89"/>
<path class="st28" d="M120.83,176.06c-1.19-1.08-0.06-5.11-3.82-2.96c-0.55,0.31-1.44-0.22-1.18-0.73c1.38-2.69,0.47-4.08-2.28-4.69
	c-0.02-0.01,0.12-1.09,0.19-1.09c2.83-0.01,1.31-5.26,5.34-4.25c1.28,0.32,0.71-2.49,1.77-3.48c0.24,0.02,0.48,0.02,0.72,0.01
	c1.64,1.07,3.13,2.46,5.26,2.53l0.02,0.02c0.54,1.89,1.33,3.65,2.55,5.2c-0.01,0.55-0.01,1.09-0.01,1.64
	c-2.29,1.19-0.4,3.72-1.67,5.23c-0.57,0.28-1.14,0.56-1.72,0.84c-1.97-1.06-2.47,0.97-3.59,1.71
	C121.89,176.04,121.36,176.05,120.83,176.06"/>
<path class="st29" d="M165.25,210.97c-2.54,0.99-1.17,3.76-2.24,5.16c-0.92,1.2-3.22,1.57-4.99,1.85c-2.21,0.36-7.28-4.59-7.46-6.98
	c-0.09-1.25,7.09-7.29,7.94-6.54C160.79,206.47,163.66,207.89,165.25,210.97"/>
<path class="st30" d="M172.07,134.61c-4.24-0.03-4.43-3.01-4.47-5.2c-0.05-2.9,2.11-4.82,4.98-4.85c3.09-0.04,4.4,2.62,4.77,5.12
	C177.78,132.48,174.74,134.7,172.07,134.61"/>
<path class="st2" d="M252.91,184.78c-2.79,5.84-6.44,11.06-11.11,15.55c-1.79-2.2,0.53-3.34,1.35-4.76c1.7-2.95,3.42-5.93,5.53-8.59
	C249.59,185.85,250.31,183.14,252.91,184.78"/>
<path class="st18" d="M126.83,161.39c-3.53,2.87-4.36,0.1-5.26-2.53C123.75,158.81,125.61,159.43,126.83,161.39"/>
<path class="st18" d="M127.72,173.49c-0.31-2.02-3.71-5.03,1.67-5.23C129.31,170.15,130,172.3,127.72,173.49"/>
<path class="st2" d="M152.57,202.62c-0.28,1.3-1.1,2.2-2.42,2.6c-0.58,0.17-1.32,0.01-1.27-0.67c0.11-1.59,1.35-2.42,2.65-2.98
	C152.09,201.32,152.51,201.9,152.57,202.62"/>
<path class="st18" d="M129.4,166.62c-3.44-0.47-3.12-2.77-2.55-5.2C128.17,162.92,129.61,164.37,129.4,166.62"/>
<path class="st18" d="M122.42,176.04c0.23-1.04-0.33-2.42,0.89-3.04c1.3-0.66,2.03,0.4,2.69,1.33
	C124.8,174.89,123.95,176.18,122.42,176.04"/>
<path class="st0" d="M184.58,285.06c-3.34,1.35-6.82,0.4-10.22,0.65C177.69,284.28,181.16,285.14,184.58,285.06"/>
<path class="st31" d="M215.74,100.14c-0.15,1.33,1.8,2.96,0.05,3.87c-1.88,0.97-3.28-1.26-4.96-1.74c-0.76,0.1-0.93,0.65-1.03,1.22
	c-0.22,1.36-0.01,3.28-2.05,3.08c-1.6-0.15-1.49-1.85-1.53-3.13c-0.07-2.11-0.84-2.72-2.53-1.17c-1.37,1.26-3.44,2.18-4.57,1.12
	c-1.28-1.19,0.45-2.82,1.43-3.95c1.62-1.88,1.24-2.69-1.18-2.8c-1.18-0.05-2.53-0.33-2.89-1.48c-0.48-1.55,1.08-1.7,2.09-2.13
	c0.85-0.36,1.32-0.9,1.4-1.92c0.39-4.79,0.49-4.82,4.89-2.04c1.08-1.75,0.84-4.35,2.75-5.42c0.97-0.54,1.17,1.41,2.11,1.79
	c0.74,2.01,2.27,1.49,3.84,1.35c1.26-0.11,3.23-0.48,2.28,2.07c-0.02,0.58-0.05,1.16-0.07,1.74c-0.68,2.39,1.98,1.5,2.58,2.64
	c0.95,1.45,0.84,2.65-0.85,3.45c-1.42,1.04-2.98,1.17-4.44,0.75C214.71,97.38,215,99,215.74,100.14"/>
<path class="st0" d="M215.82,88.87c-1.86-3.78-3.62-0.35-5.51,0.1c-1.11-1-0.36-2.36-0.61-3.53c1.42,0.81,2.97,0.84,4.55,0.88
	C215.96,86.37,217.27,86.82,215.82,88.87"/>
<path class="st0" d="M215.74,100.14c-1.12-0.77-2.35-1.44-2.69-3.01c1.45-0.88,2.98-0.3,4.44-0.43
	C216.9,97.84,215.73,98.69,215.74,100.14"/>
<path class="st0" d="M218.33,93.24c-1.36-0.19-3.06,0.35-3.81-1.31c-0.4-0.89,0.51-1.15,1.22-1.33
	C216.61,91.49,217.47,92.37,218.33,93.24"/>
</svg>
